<svg width="0" height="0" class="hidden">
  <symbol fill="none"
    xmlns="http://www.w3.org/2000/svg" viewBox="0 0 326 81" id="BIYSK">
    <path d="M0.400024 79V1.72002H42.88C50.72 1.72002 56.68 3.56002 60.76 7.24002C64.84 10.92 66.88 16.2 66.88 23.08C66.88 27.08 66.12 30.44 64.6 33.16C63.16 35.88 61.24 38.04 58.84 39.64C62.12 40.92 64.72 42.8 66.64 45.28C68.64 47.68 69.64 51.28 69.64 56.08C69.64 63.36 67.4 69 62.92 73C58.44 77 52.08 79 43.84 79H0.400024ZM22.12 32.56H36.76C42.28 32.56 45.04 30.08 45.04 25.12C45.04 22.64 44.36 20.76 43 19.48C41.72 18.2 39.44 17.56 36.16 17.56H22.12V32.56ZM22.12 63.28H37.72C40.76 63.28 43 62.64 44.44 61.36C45.88 60.08 46.6 57.96 46.6 55C46.6 52.52 45.88 50.64 44.44 49.36C43 48.08 40.6 47.44 37.24 47.44H22.12V63.28Z" fill="white"></path>
    <path d="M78.0953 79V1.72002H100.655V79H78.0953Z" fill="white"></path>
    <path d="M134.59 79V50.68L106.75 1.72002H130.27L145.87 30.88L161.47 1.72002H184.99L157.15 50.68V79H134.59Z" fill="white"></path>
    <path d="M210.876 80.2C205.676 80.2 200.756 79.8 196.116 79C191.476 78.12 187.516 76.92 184.236 75.4V56.8C187.836 58.48 191.836 59.84 196.236 60.88C200.636 61.92 204.756 62.44 208.596 62.44C212.596 62.44 215.596 62.12 217.596 61.48C219.676 60.76 220.716 59.2 220.716 56.8C220.716 55.12 220.116 53.8 218.916 52.84C217.796 51.88 215.996 51 213.516 50.2C211.116 49.4 207.956 48.4 204.036 47.2C198.836 45.52 194.716 43.68 191.676 41.68C188.636 39.68 186.436 37.24 185.076 34.36C183.796 31.48 183.156 27.96 183.156 23.8C183.156 16.2 185.836 10.44 191.196 6.52002C196.636 2.52002 204.676 0.52002 215.316 0.52002C219.556 0.52002 223.916 0.88002 228.396 1.60002C232.956 2.32002 236.636 3.12002 239.436 4.00002V22.72C235.676 21.2 232.076 20.12 228.636 19.48C225.196 18.84 221.956 18.52 218.916 18.52C215.396 18.52 212.396 18.8 209.916 19.36C207.436 19.92 206.196 21.36 206.196 23.68C206.196 25.68 207.236 27.16 209.316 28.12C211.476 29 215.276 30.16 220.716 31.6C227.036 33.28 231.836 35.32 235.116 37.72C238.476 40.12 240.756 42.92 241.956 46.12C243.156 49.24 243.756 52.8 243.756 56.8C243.756 63.84 241.036 69.52 235.596 73.84C230.156 78.08 221.916 80.2 210.876 80.2Z" fill="white"></path>
    <path d="M252.119 79V1.72002H274.679V28.96L298.079 1.72002H323.759L296.519 33.4L325.679 79H301.679L282.599 47.8L274.679 56.68V79H252.119Z" fill="white"></path>
  </symbol>

  <symbol fill="none"
    xmlns="http://www.w3.org/2000/svg" viewBox="0 0 59 50" id="Menu">
    <g id="Frame" clip-path="url(#clip0_1_250)">
      <path id="Ellipse 1" d="M57.4668 24.5296C57.4668 37.6167 47.9167 48.2258 29.3035 48.2258C9.58335 48.2258 1.14026 37.6167 1.14026 24.5296C1.14026 11.4426 12.4284 0.833496 29.3035 0.833496C44.8577 0.833496 57.4668 11.4426 57.4668 24.5296Z" fill="black"></path>
      <path id="Vector" d="M50.5799 6.66667C55.3688 10.7483 58.3333 16.78 58.3333 25.0113C58.3333 33.2426 55.3916 39.2517 50.5799 43.356C45.1981 47.9365 37.5358 50.0227 29.1667 50.0227C20.7747 50.0227 13.1125 47.9365 7.75345 43.356C2.96456 39.2744 0 33.2426 0 25.0113C0 16.78 2.94175 10.7483 7.75345 6.66667C13.1125 2.08617 20.7747 0 29.1667 0C37.5586 0 45.2209 2.08617 50.5799 6.66667ZM56.2125 25.0113C56.2125 17.4603 53.5444 11.9728 49.2116 8.27664C44.2403 4.03628 37.0798 2.10884 29.1667 2.10884C21.2536 2.10884 14.093 4.03628 9.12171 8.25397C4.7889 11.9728 2.1208 17.4603 2.1208 25.0113C2.1208 32.5624 4.7889 38.0499 9.12171 41.7234C14.093 45.941 21.2536 47.8685 29.1667 47.8685C37.0798 47.8685 44.2403 45.941 49.2116 41.7234C53.5444 38.0499 56.2125 32.5624 56.2125 25.0113Z" fill="black"></path>
      <g id="Group 1">
        <path id="Vector 1" d="M12.5 21.6665H45.8333" stroke="white" stroke-width="1.3" stroke-linecap="round"></path>
        <path id="Vector 2" d="M12.5 28.333H45.8333" stroke="white" stroke-width="1.3" stroke-linecap="round"></path>
      </g>
    </g>
    <defs>
      <clipPath id="clip0_1_250">
        <rect width="58.3333" height="50" fill="white"></rect>
      </clipPath>
    </defs>
  </symbol>

  <symbol fill="none"
    xmlns="http://www.w3.org/2000/svg" viewBox="0 0 22 22" id="Arrow">
    <g id="Layer 2">
      <g id="Layer 1">
        <path id="Vector" d="M11.4065 20.4444L21 10.7222M21 10.7222L11.4065 1M21 10.7222H1" stroke-width="1.5" stroke-miterlimit="22.93" stroke-linecap="round" stroke-linejoin="round"></path>
      </g>
    </g>
  </symbol>

  <symbol fill="none"
    xmlns="http://www.w3.org/2000/svg" viewBox="0 0 59 50" id="Close">
    <g id="Frame" clip-path="url(#clip0_1_876)">
      <path id="Ellipse 1" d="M57.4668 24.5296C57.4668 37.6167 47.9167 48.2258 29.3035 48.2258C9.58335 48.2258 1.14026 37.6167 1.14026 24.5296C1.14026 11.4426 12.4284 0.833496 29.3035 0.833496C44.8577 0.833496 57.4668 11.4426 57.4668 24.5296Z" fill="black"></path>
      <path id="Vector" d="M50.5799 6.66667C55.3688 10.7483 58.3333 16.78 58.3333 25.0113C58.3333 33.2426 55.3916 39.2517 50.5799 43.356C45.1981 47.9365 37.5358 50.0227 29.1667 50.0227C20.7747 50.0227 13.1125 47.9365 7.75345 43.356C2.96456 39.2744 0 33.2426 0 25.0113C0 16.78 2.94175 10.7483 7.75345 6.66667C13.1125 2.08617 20.7747 0 29.1667 0C37.5586 0 45.2209 2.08617 50.5799 6.66667ZM56.2125 25.0113C56.2125 17.4603 53.5444 11.9728 49.2116 8.27664C44.2403 4.03628 37.0798 2.10884 29.1667 2.10884C21.2536 2.10884 14.093 4.03628 9.12171 8.25397C4.7889 11.9728 2.1208 17.4603 2.1208 25.0113C2.1208 32.5624 4.7889 38.0499 9.12171 41.7234C14.093 45.941 21.2536 47.8685 29.1667 47.8685C37.0798 47.8685 44.2403 45.941 49.2116 41.7234C53.5444 38.0499 56.2125 32.5624 56.2125 25.0113Z" fill="black"></path>
      <g id="Group 1">
        <path id="Vector 1" d="M15.1888 16.5894L43.1445 34.744" stroke="white" stroke-width="1.3" stroke-linecap="round"></path>
        <path id="Vector 2" d="M15.1888 34.4106L43.1445 16.256" stroke="white" stroke-width="1.3" stroke-linecap="round"></path>
      </g>
    </g>
    <defs>
      <clipPath id="clip0_1_876">
        <rect width="58.3333" height="50" fill="white"></rect>
      </clipPath>
    </defs>
  </symbol>

  <symbol fill="none"
    xmlns="http://www.w3.org/2000/svg" viewBox="0 0 14 21" id="MapPoint">
    <g id="Group 65">
      <ellipse id="Ellipse 3" cx="7" cy="6.75" rx="7" ry="6.75" fill="#212121"></ellipse>
      <path id="Vector 42" d="M7 7.5V21" stroke="#212121"></path>
    </g>
  </symbol>

  <symbol fill="none"
    xmlns="http://www.w3.org/2000/svg" viewBox="0 0 109 27" id="BIYSK-BLACK">
    <g id="BIYSK">
      <path d="M0 26.5934V0.406626H14.2349C16.8621 0.406626 18.8593 1.03012 20.2265 2.27711C21.5937 3.5241 22.2773 5.31325 22.2773 7.64458C22.2773 9 22.0226 10.1386 21.5132 11.0602C21.0307 11.9819 20.3873 12.7139 19.5831 13.256C20.6822 13.6898 21.5535 14.3268 22.1968 15.1672C22.867 15.9804 23.2021 17.2003 23.2021 18.8268C23.2021 21.2937 22.4515 23.2048 20.9503 24.5602C19.449 25.9157 17.3178 26.5934 14.5566 26.5934H0ZM7.27831 10.8569H12.1841C14.0339 10.8569 14.9587 10.0166 14.9587 8.33584C14.9587 7.49548 14.7309 6.85843 14.2751 6.4247C13.8462 5.99096 13.0822 5.7741 11.9831 5.7741H7.27831V10.8569ZM7.27831 21.2666H12.5058C13.5245 21.2666 14.2751 21.0497 14.7577 20.616C15.2402 20.1822 15.4815 19.4639 15.4815 18.4608C15.4815 17.6205 15.2402 16.9834 14.7577 16.5497C14.2751 16.116 13.4709 15.8991 12.345 15.8991H7.27831V21.2666Z" fill="#212121"></path>
      <path d="M26.0355 26.5934V0.406626H33.5953V26.5934H26.0355Z" fill="#212121"></path>
      <path d="M44.9667 26.5934V16.997L35.6376 0.406626H43.5191L48.7466 10.2877L53.9741 0.406626H61.8556L52.5265 16.997V26.5934H44.9667Z" fill="#212121"></path>
      <path d="M70.53 27C68.7875 27 67.1388 26.8645 65.584 26.5934C64.0291 26.2952 62.7021 25.8886 61.603 25.3735V19.0708C62.8094 19.6401 64.1497 20.1009 65.6242 20.4533C67.0986 20.8057 68.4792 20.9819 69.766 20.9819C71.1064 20.9819 72.1117 20.8735 72.7819 20.6566C73.4789 20.4126 73.8274 19.884 73.8274 19.0708C73.8274 18.5015 73.6263 18.0542 73.2242 17.7289C72.8489 17.4036 72.2457 17.1054 71.4147 16.8343C70.6104 16.5633 69.5515 16.2244 68.2379 15.8178C66.4954 15.2485 65.1148 14.625 64.0961 13.9473C63.0774 13.2696 62.3402 12.4428 61.8845 11.4669C61.4556 10.491 61.2411 9.29819 61.2411 7.88856C61.2411 5.31325 62.1392 3.36145 63.9353 2.03313C65.7582 0.677711 68.4524 0 72.0178 0C73.4386 0 74.8997 0.121988 76.4009 0.365964C77.9289 0.60994 79.1621 0.881025 80.1004 1.17922V7.52259C78.8404 7.00753 77.6341 6.64157 76.4813 6.4247C75.3286 6.20783 74.2429 6.0994 73.2242 6.0994C72.0446 6.0994 71.0394 6.19428 70.2083 6.38404C69.3773 6.5738 68.9617 7.06175 68.9617 7.84789C68.9617 8.5256 69.3102 9.02711 70.0072 9.35241C70.7311 9.6506 72.0044 10.0437 73.8274 10.5316C75.9452 11.1009 77.5536 11.7922 78.6528 12.6054C79.7787 13.4187 80.5427 14.3675 80.9448 15.4518C81.3469 16.509 81.548 17.7154 81.548 19.0708C81.548 21.4563 80.6365 23.381 78.8136 24.8449C76.9907 26.2816 74.2295 27 70.53 27Z" fill="#212121"></path>
      <path d="M84.3503 26.5934V0.406626H91.91V9.63705L99.7513 0.406626H108.357L99.2286 11.1416L109 26.5934H100.958L94.564 16.0211L91.91 19.0301V26.5934H84.3503Z" fill="#212121"></path>
    </g>
  </symbol>

  <symbol fill="none"
    xmlns="http://www.w3.org/2000/svg" viewBox="0 0 25 26" id="instagram">
    <g id="mdi:instagram">
      <path id="Vector" d="M8.12501 2.58331H16.875C20.2083 2.58331 22.9167 5.29165 22.9167 8.62498V17.375C22.9167 18.9773 22.2801 20.5141 21.1471 21.6471C20.0141 22.7801 18.4774 23.4166 16.875 23.4166H8.12501C4.79168 23.4166 2.08334 20.7083 2.08334 17.375V8.62498C2.08334 7.02263 2.71987 5.48591 3.85291 4.35288C4.98594 3.21984 6.52266 2.58331 8.12501 2.58331ZM7.91668 4.66665C6.92212 4.66665 5.96829 5.06173 5.26503 5.765C4.56177 6.46826 4.16668 7.42208 4.16668 8.41665V17.5833C4.16668 19.6562 5.84376 21.3333 7.91668 21.3333H17.0833C18.0779 21.3333 19.0317 20.9382 19.735 20.235C20.4383 19.5317 20.8333 18.5779 20.8333 17.5833V8.41665C20.8333 6.34373 19.1563 4.66665 17.0833 4.66665H7.91668ZM17.9688 6.22915C18.3141 6.22915 18.6453 6.36633 18.8895 6.61052C19.1337 6.85471 19.2708 7.1859 19.2708 7.53123C19.2708 7.87656 19.1337 8.20775 18.8895 8.45194C18.6453 8.69613 18.3141 8.83331 17.9688 8.83331C17.6234 8.83331 17.2922 8.69613 17.048 8.45194C16.8039 8.20775 16.6667 7.87656 16.6667 7.53123C16.6667 7.1859 16.8039 6.85471 17.048 6.61052C17.2922 6.36633 17.6234 6.22915 17.9688 6.22915ZM12.5 7.79165C13.8813 7.79165 15.2061 8.34038 16.1829 9.31713C17.1596 10.2939 17.7083 11.6186 17.7083 13C17.7083 14.3813 17.1596 15.7061 16.1829 16.6828C15.2061 17.6596 13.8813 18.2083 12.5 18.2083C11.1187 18.2083 9.79391 17.6596 8.81716 16.6828C7.84041 15.7061 7.29168 14.3813 7.29168 13C7.29168 11.6186 7.84041 10.2939 8.81716 9.31713C9.79391 8.34038 11.1187 7.79165 12.5 7.79165ZM12.5 9.87498C11.6712 9.87498 10.8764 10.2042 10.2903 10.7903C9.70425 11.3763 9.37501 12.1712 9.37501 13C9.37501 13.8288 9.70425 14.6236 10.2903 15.2097C10.8764 15.7957 11.6712 16.125 12.5 16.125C13.3288 16.125 14.1237 15.7957 14.7097 15.2097C15.2958 14.6236 15.625 13.8288 15.625 13C15.625 12.1712 15.2958 11.3763 14.7097 10.7903C14.1237 10.2042 13.3288 9.87498 12.5 9.87498Z" fill="black"></path>
    </g>
  </symbol>

  <symbol fill="none"
    xmlns="http://www.w3.org/2000/svg" viewBox="0 0 18 16" id="telegram">
    <path id="Vector" d="M16.466 0.141264C16.466 0.141264 18.131 -0.551304 17.9917 1.13052C17.9459 1.82309 17.5297 4.2473 17.2057 6.86901L16.0958 14.6358C16.0958 14.6358 16.0032 15.7737 15.1705 15.9716C14.3382 16.1691 13.0894 15.279 12.8579 15.0811C12.6728 14.9325 9.38913 12.7062 8.23287 11.6182C7.90887 11.3211 7.53859 10.7277 8.27915 10.0352L13.1352 5.08799C13.6902 4.49462 14.2452 3.10948 11.9327 4.7913L5.45705 9.49071C5.45705 9.49071 4.71692 9.98579 3.32965 9.54054L0.322836 8.55083C0.322836 8.55083 -0.787148 7.80889 1.10925 7.06695C5.73476 4.74193 11.424 2.36754 16.4652 0.141264H16.466Z" fill="black"></path>
  </symbol>

  <symbol fill="none"
    xmlns="http://www.w3.org/2000/svg" viewBox="0 0 24 12" id="VK">
    <path id="Vector" d="M23.9663 0.866678C24.1579 1.33391 23.5331 2.40709 22.092 4.08622C21.892 4.31983 21.6213 4.63011 21.2798 5.01703C20.9465 5.38936 20.7175 5.65218 20.5925 5.80549C20.4675 5.9588 20.3405 6.13949 20.2114 6.34756C20.0823 6.55562 20.0323 6.70893 20.0614 6.80749C20.0906 6.90605 20.1447 7.03198 20.2239 7.18529C20.303 7.33861 20.4384 7.49557 20.63 7.65618C20.8216 7.81679 21.059 8.01025 21.3422 8.23657C21.3756 8.25117 21.3964 8.26577 21.4047 8.28038C22.5793 9.23675 23.3748 10.0435 23.7913 10.7005C23.8163 10.737 23.8434 10.7826 23.8726 10.8374C23.9017 10.8921 23.9309 10.9889 23.96 11.1276C23.9892 11.2663 23.9871 11.3904 23.9538 11.4999C23.9205 11.6094 23.8163 11.7098 23.6414 11.8011C23.4665 11.8923 23.2207 11.9379 22.9042 11.9379L19.7053 11.9817C19.5054 12.0183 19.2722 12 19.0056 11.927C18.739 11.854 18.5224 11.7737 18.3558 11.6861L18.1059 11.5547C17.856 11.4014 17.5644 11.1677 17.2312 10.8538C16.898 10.5399 16.6127 10.257 16.3753 10.0051C16.1379 9.75326 15.8838 9.54154 15.6131 9.36998C15.3423 9.19842 15.107 9.14184 14.9071 9.20024C14.8821 9.20754 14.8488 9.22032 14.8071 9.23857C14.7655 9.25682 14.6946 9.30975 14.5947 9.39736C14.4947 9.48496 14.4052 9.59265 14.326 9.72041C14.2469 9.84817 14.1761 10.038 14.1136 10.2898C14.0511 10.5417 14.0241 10.8246 14.0324 11.1385C14.0324 11.248 14.0178 11.3484 13.9887 11.4397C13.9595 11.5309 13.9283 11.5985 13.8949 11.6423L13.845 11.697C13.695 11.8357 13.4743 11.916 13.1827 11.9379H11.7457C11.1543 11.9671 10.5462 11.9069 9.92139 11.7573C9.29662 11.6076 8.7489 11.4141 8.27824 11.1769C7.80757 10.9396 7.37856 10.6987 6.9912 10.4541C6.60385 10.2095 6.3102 9.99965 6.11028 9.82444L5.79789 9.56162C5.71459 9.48861 5.60004 9.37911 5.45426 9.2331C5.30848 9.08708 5.01068 8.75491 4.56084 8.23657C4.111 7.71823 3.6695 7.16704 3.23632 6.583C2.80315 5.99896 2.29292 5.22875 1.70563 4.27238C1.11834 3.31601 0.574791 2.32314 0.0749727 1.29376C0.0249909 1.17695 0 1.07839 0 0.998088C0 0.917782 0.0124955 0.859378 0.0374864 0.822875L0.0874682 0.75717C0.212423 0.61846 0.449836 0.549105 0.799709 0.549105L4.22346 0.527203C4.32343 0.541804 4.41922 0.565531 4.51086 0.598383C4.60249 0.631236 4.66913 0.662263 4.71078 0.691465L4.77326 0.724318C4.90655 0.804624 5.00651 0.921432 5.07315 1.07474C5.23976 1.43977 5.43136 1.81757 5.64794 2.20815C5.86453 2.59873 6.0353 2.89623 6.16026 3.10064L6.36018 3.41822C6.60176 3.85625 6.83501 4.23588 7.05993 4.5571C7.28485 4.87832 7.48686 5.12837 7.66596 5.30723C7.84506 5.48609 8.01791 5.62663 8.18452 5.72884C8.35113 5.83104 8.49274 5.88215 8.60937 5.88215C8.72599 5.88215 8.83845 5.8639 8.94674 5.82739C8.9634 5.82009 8.98423 5.80184 9.00922 5.77264C9.03421 5.74344 9.08419 5.66313 9.15917 5.53172C9.23414 5.40031 9.29037 5.22875 9.32785 5.01703C9.36534 4.80532 9.40491 4.50965 9.44656 4.13002C9.48821 3.75039 9.48821 3.29411 9.44656 2.76117C9.4299 2.46915 9.39241 2.20268 9.3341 1.96176C9.27579 1.72084 9.21748 1.55293 9.15917 1.45802L9.08419 1.32661C8.87594 1.07839 8.5219 0.921432 8.02208 0.855727C7.91379 0.841126 7.93461 0.75352 8.08456 0.592908C8.21784 0.454198 8.37612 0.34469 8.55938 0.264384C9.00089 0.0745698 9.99636 -0.0130367 11.5458 0.0015644C12.2289 0.00886494 12.7912 0.0563184 13.2327 0.143925C13.3993 0.180428 13.5388 0.229706 13.6513 0.291761C13.7637 0.353815 13.8491 0.441422 13.9074 0.55458C13.9657 0.667738 14.0095 0.784547 14.0386 0.905006C14.0678 1.02546 14.0824 1.19155 14.0824 1.40327C14.0824 1.61498 14.0782 1.81575 14.0699 2.00556C14.0615 2.19538 14.0511 2.45272 14.0386 2.77759C14.0261 3.10247 14.0199 3.40362 14.0199 3.68104C14.0199 3.76134 14.0157 3.91465 14.0074 4.14097C13.9991 4.36729 13.997 4.5425 14.0012 4.66661C14.0053 4.79072 14.0199 4.93855 14.0449 5.11012C14.0699 5.28168 14.1178 5.42404 14.1886 5.5372C14.2594 5.65036 14.3531 5.73979 14.4697 5.80549C14.5364 5.82009 14.6072 5.83469 14.6822 5.8493C14.7571 5.8639 14.8654 5.82374 15.007 5.72884C15.1487 5.63393 15.3069 5.508 15.4819 5.35103C15.6568 5.19407 15.8734 4.9495 16.1316 4.61733C16.3899 4.28516 16.6731 3.89275 16.9813 3.44012C17.4811 2.68086 17.9268 1.85955 18.3183 0.976186C18.3517 0.903181 18.3933 0.839301 18.4433 0.784547C18.4933 0.729793 18.5391 0.691465 18.5807 0.669564L18.6307 0.636711L18.6932 0.609334L18.8556 0.576482L19.1055 0.571006L22.7042 0.549105C23.0291 0.512602 23.2957 0.521728 23.5039 0.576482C23.7122 0.631236 23.8413 0.691465 23.8913 0.75717L23.9663 0.866678Z" fill="black"></path>
  </symbol>

  <symbol fill="none"
    xmlns="http://www.w3.org/2000/svg" viewBox="0 0 58 50" id="CloseWihite">
    <g id="Frame" clip-path="url(#clip0_1_636)">
      <path id="Ellipse 1" d="M57.1384 24.5295C57.1384 37.6165 47.6429 48.2257 29.1361 48.2257C9.52858 48.2257 1.13373 37.6165 1.13373 24.5295C1.13373 11.4425 12.3573 0.833374 29.1361 0.833374C44.6013 0.833374 57.1384 11.4425 57.1384 24.5295Z" fill="white"></path>
      <path id="Vector" d="M50.2909 6.66667C55.0524 10.7483 58 16.78 58 25.0113C58 33.2426 55.0751 39.2517 50.2909 43.356C44.9398 47.9365 37.3213 50.0227 29 50.0227C20.656 50.0227 13.0375 47.9365 7.70915 43.356C2.94762 39.2744 0 33.2426 0 25.0113C0 16.78 2.92494 10.7483 7.70915 6.66667C13.0375 2.08617 20.656 0 29 0C37.344 0 44.9625 2.08617 50.2909 6.66667ZM55.8913 25.0113C55.8913 17.4603 53.2385 11.9728 48.9304 8.27664C43.9875 4.03628 36.8679 2.10884 29 2.10884C21.1321 2.10884 14.0125 4.03628 9.06959 8.25397C4.76153 11.9728 2.10868 17.4603 2.10868 25.0113C2.10868 32.5624 4.76153 38.0499 9.06959 41.7234C14.0125 45.941 21.1321 47.8685 29 47.8685C36.8679 47.8685 43.9875 45.941 48.9304 41.7234C53.2385 38.0499 55.8913 32.5624 55.8913 25.0113Z" fill="white"></path>
      <g id="Group 1">
        <path id="Vector 1" d="M15.102 16.5892L42.898 34.7439" stroke="#212121" stroke-width="1.3" stroke-linecap="round"></path>
        <path id="Vector 2" d="M15.102 34.4105L42.898 16.2559" stroke="#212121" stroke-width="1.3" stroke-linecap="round"></path>
      </g>
    </g>
    <defs>
      <clipPath id="clip0_1_636">
        <rect width="58" height="50" fill="white"></rect>
      </clipPath>
    </defs>
  </symbol>

  <symbol fill="none" id="ButtonBlackBorder"
    xmlns="http://www.w3.org/2000/svg"
    xmlnsSvg="http://www.w3.org/2000/svg" viewBox="0 0 10 52">
    <defs id="defs7"></defs>
    <path id="Rectangle 1" d="M 0.01213632,0.79857048 H 9.2778002 L 0.72491605,51.309819 H 0.01213632" stroke="#000000" stroke-width="1.42305"></path>
  </symbol>

  <symbol fill="none"
    xmlns="http://www.w3.org/2000/svg" viewBox="0 0 10 52" id="ButtonBlack">
    <path id="Rectangle 1" d="M10 0H0V52H0.76927L10 0Z" fill="black"></path>
  </symbol>
</svg>